<mxfile host="app.diagrams.net" modified="2024-07-17T18:26:06.118Z" agent="Mozilla/5.0 (Windows NT 10.0; Win64; x64) AppleWebKit/537.36 (KHTML, like Gecko) Chrome/126.0.0.0 Safari/537.36" etag="Xi8dPQHJPiCLcRiQkdOo" version="24.7.1" type="github">
  <diagram id="C5RBs43oDa-KdzZeNtuy" name="Page-1">
    <mxGraphModel dx="819" dy="446" grid="1" gridSize="10" guides="1" tooltips="1" connect="1" arrows="1" fold="1" page="1" pageScale="1" pageWidth="827" pageHeight="1169" math="0" shadow="0">
      <root>
        <mxCell id="WIyWlLk6GJQsqaUBKTNV-0" />
        <mxCell id="WIyWlLk6GJQsqaUBKTNV-1" parent="WIyWlLk6GJQsqaUBKTNV-0" />
        <mxCell id="MWZ-FeETw1VFMS76Nx6C-34" value="" style="rounded=1;whiteSpace=wrap;html=1;strokeColor=#000000;fillColor=#f5f5f5;" vertex="1" parent="WIyWlLk6GJQsqaUBKTNV-1">
          <mxGeometry x="120" y="80" width="500" height="210" as="geometry" />
        </mxCell>
        <mxCell id="MWZ-FeETw1VFMS76Nx6C-13" value="" style="rounded=1;whiteSpace=wrap;html=1;fontSize=12;glass=0;strokeWidth=1;shadow=1;fillColor=#d4e4d4;strokeColor=#003D00;align=center;arcSize=6;" vertex="1" parent="WIyWlLk6GJQsqaUBKTNV-1">
          <mxGeometry x="150" y="110" width="140" height="150" as="geometry" />
        </mxCell>
        <mxCell id="MWZ-FeETw1VFMS76Nx6C-14" value="Event Broker" style="rounded=1;whiteSpace=wrap;html=1;fontSize=12;glass=0;strokeWidth=1;shadow=1;fillColor=#ffe4cc;strokeColor=#744226;arcSize=15;gradientColor=none;gradientDirection=north;" vertex="1" parent="WIyWlLk6GJQsqaUBKTNV-1">
          <mxGeometry x="470" y="150" width="120" height="40" as="geometry" />
        </mxCell>
        <mxCell id="MWZ-FeETw1VFMS76Nx6C-15" value="" style="strokeColor=#dddddd;shadow=1;strokeWidth=1;rounded=1;absoluteArcSize=1;arcSize=2;" vertex="1" parent="WIyWlLk6GJQsqaUBKTNV-1">
          <mxGeometry x="327.5" y="150" width="92.5" height="40" as="geometry" />
        </mxCell>
        <mxCell id="MWZ-FeETw1VFMS76Nx6C-16" value="Task&#xa;Queues" style="sketch=0;dashed=0;connectable=0;html=1;fillColor=#757575;strokeColor=none;shape=mxgraph.gcp2.task_queues;part=1;labelPosition=right;verticalLabelPosition=middle;align=left;verticalAlign=middle;spacingLeft=5;fontSize=12;shadow=1;" vertex="1" parent="MWZ-FeETw1VFMS76Nx6C-15">
          <mxGeometry y="0.5" width="32" height="32" relative="1" as="geometry">
            <mxPoint x="5" y="-16" as="offset" />
          </mxGeometry>
        </mxCell>
        <mxCell id="MWZ-FeETw1VFMS76Nx6C-17" value="&lt;span style=&quot;background-color: initial;&quot;&gt;&lt;b&gt;Manager Module&lt;/b&gt;&lt;/span&gt;" style="rounded=1;whiteSpace=wrap;html=1;fontSize=12;glass=0;strokeWidth=1;shadow=0;fillColor=#D4E4D4;strokeColor=#D4E4D4;" vertex="1" parent="WIyWlLk6GJQsqaUBKTNV-1">
          <mxGeometry x="170" y="120" width="100" height="20" as="geometry" />
        </mxCell>
        <mxCell id="MWZ-FeETw1VFMS76Nx6C-18" value="Notification Task" style="rounded=1;whiteSpace=wrap;html=1;fontSize=12;glass=0;strokeWidth=1;shadow=1;fillColor=#e0ecfc;strokeColor=#000080;arcSize=15;" vertex="1" parent="WIyWlLk6GJQsqaUBKTNV-1">
          <mxGeometry x="170" y="210" width="100" height="30" as="geometry" />
        </mxCell>
        <mxCell id="MWZ-FeETw1VFMS76Nx6C-19" value="" style="edgeStyle=orthogonalEdgeStyle;rounded=0;orthogonalLoop=1;jettySize=auto;html=1;shadow=1;" edge="1" parent="WIyWlLk6GJQsqaUBKTNV-1" source="MWZ-FeETw1VFMS76Nx6C-20" target="MWZ-FeETw1VFMS76Nx6C-18">
          <mxGeometry relative="1" as="geometry" />
        </mxCell>
        <mxCell id="MWZ-FeETw1VFMS76Nx6C-20" value="Main Task" style="rounded=1;whiteSpace=wrap;html=1;fontSize=12;glass=0;strokeWidth=1;shadow=1;fillColor=#e0ecfc;strokeColor=#000080;arcSize=15;" vertex="1" parent="WIyWlLk6GJQsqaUBKTNV-1">
          <mxGeometry x="170" y="155" width="100" height="30" as="geometry" />
        </mxCell>
        <mxCell id="MWZ-FeETw1VFMS76Nx6C-21" value="" style="endArrow=classic;startArrow=classic;html=1;rounded=0;exitX=0.976;exitY=0.52;exitDx=0;exitDy=0;exitPerimeter=0;entryX=0;entryY=0.5;entryDx=0;entryDy=0;shadow=1;" edge="1" parent="WIyWlLk6GJQsqaUBKTNV-1" source="MWZ-FeETw1VFMS76Nx6C-15" target="MWZ-FeETw1VFMS76Nx6C-14">
          <mxGeometry width="50" height="50" relative="1" as="geometry">
            <mxPoint x="640" y="315" as="sourcePoint" />
            <mxPoint x="460" y="185" as="targetPoint" />
          </mxGeometry>
        </mxCell>
        <mxCell id="MWZ-FeETw1VFMS76Nx6C-22" value="" style="endArrow=classic;startArrow=classic;html=1;rounded=0;entryX=0;entryY=0.5;entryDx=0;entryDy=0;shadow=1;" edge="1" parent="WIyWlLk6GJQsqaUBKTNV-1" source="MWZ-FeETw1VFMS76Nx6C-20" target="MWZ-FeETw1VFMS76Nx6C-15">
          <mxGeometry width="50" height="50" relative="1" as="geometry">
            <mxPoint x="219.71000000000004" y="135" as="sourcePoint" />
            <mxPoint x="310" y="215" as="targetPoint" />
            <Array as="points" />
          </mxGeometry>
        </mxCell>
      </root>
    </mxGraphModel>
  </diagram>
</mxfile>
